<svg preserveAspectRatio="none" width="100%" height="100%" overflow="visible" style="display: block;" viewBox="0 0 18.2673 18.2673" fill="none" xmlns="http://www.w3.org/2000/svg">
<g id="Group">
<path id="Vector" fill-rule="evenodd" clip-rule="evenodd" d="M3.65345 1.8266H14.6138C15.5828 1.8266 16.512 2.21152 17.1972 2.89667C17.8823 3.58183 18.2673 4.5111 18.2673 5.48006V14.6137C18.2673 15.5826 17.8823 16.5119 17.1972 17.1971C16.512 17.8822 15.5828 18.2671 14.6138 18.2671H3.65345C2.6845 18.2671 1.75523 17.8822 1.07007 17.1971C0.384916 16.5119 0 15.5826 0 14.6137V5.48006C0 4.5111 0.384916 3.58183 1.07007 2.89667C1.75523 2.21152 2.6845 1.8266 3.65345 1.8266ZM3.65345 3.65333C3.16897 3.65333 2.70434 3.84579 2.36176 4.18837C2.01918 4.53094 1.82673 4.99558 1.82673 5.48006V14.6137C1.82673 15.0982 2.01918 15.5628 2.36176 15.9054C2.70434 16.248 3.16897 16.4404 3.65345 16.4404H14.6138C15.0983 16.4404 15.5629 16.248 15.9055 15.9054C16.2481 15.5628 16.4405 15.0982 16.4405 14.6137V5.48006C16.4405 4.99558 16.2481 4.53094 15.9055 4.18837C15.5629 3.84579 15.0983 3.65333 14.6138 3.65333H3.65345Z" fill="var(--fill-0, #453F2F)"/>
<path id="Vector_2" fill-rule="evenodd" clip-rule="evenodd" d="M0.913375 7.30691C0.913375 7.06467 1.0096 6.83235 1.18089 6.66106C1.35218 6.48977 1.5845 6.39354 1.82674 6.39354H16.4405C16.6828 6.39354 16.9151 6.48977 17.0864 6.66106C17.2577 6.83235 17.3539 7.06467 17.3539 7.30691C17.3539 7.54914 17.2577 7.78146 17.0864 7.95275C16.9151 8.12404 16.6828 8.22027 16.4405 8.22027H1.82674C1.5845 8.22027 1.35218 8.12404 1.18089 7.95275C1.0096 7.78146 0.913375 7.54914 0.913375 7.30691ZM5.48019 0C5.72243 0 5.95475 0.096229 6.12604 0.267518C6.29733 0.438807 6.39355 0.671124 6.39355 0.913363V4.56682C6.39355 4.80906 6.29733 5.04137 6.12604 5.21266C5.95475 5.38395 5.72243 5.48018 5.48019 5.48018C5.23795 5.48018 5.00563 5.38395 4.83435 5.21266C4.66306 5.04137 4.56683 4.80906 4.56683 4.56682V0.913363C4.56683 0.671124 4.66306 0.438807 4.83435 0.267518C5.00563 0.096229 5.23795 0 5.48019 0ZM12.7871 0C13.0293 0 13.2617 0.096229 13.4329 0.267518C13.6042 0.438807 13.7005 0.671124 13.7005 0.913363V4.56682C13.7005 4.80906 13.6042 5.04137 13.4329 5.21266C13.2617 5.38395 13.0293 5.48018 12.7871 5.48018C12.5449 5.48018 12.3125 5.38395 12.1413 5.21266C11.97 5.04137 11.8737 4.80906 11.8737 4.56682V0.913363C11.8737 0.671124 11.97 0.438807 12.1413 0.267518C12.3125 0.096229 12.5449 0 12.7871 0Z" fill="var(--fill-0, #453F2F)"/>
<path id="Vector_3" d="M5.48023 10.047C5.48023 10.2892 5.384 10.5215 5.21271 10.6928C5.04142 10.8641 4.8091 10.9603 4.56686 10.9603C4.32462 10.9603 4.09231 10.8641 3.92102 10.6928C3.74973 10.5215 3.6535 10.2892 3.6535 10.047C3.6535 9.80473 3.74973 9.57241 3.92102 9.40112C4.09231 9.22983 4.32462 9.1336 4.56686 9.1336C4.8091 9.1336 5.04142 9.22983 5.21271 9.40112C5.384 9.57241 5.48023 9.80473 5.48023 10.047ZM5.48023 13.7004C5.48023 13.9427 5.384 14.175 5.21271 14.3463C5.04142 14.5176 4.8091 14.6138 4.56686 14.6138C4.32462 14.6138 4.09231 14.5176 3.92102 14.3463C3.74973 14.175 3.6535 13.9427 3.6535 13.7004C3.6535 13.4582 3.74973 13.2259 3.92102 13.0546C4.09231 12.8833 4.32462 12.7871 4.56686 12.7871C4.8091 12.7871 5.04142 12.8833 5.21271 13.0546C5.384 13.2259 5.48023 13.4582 5.48023 13.7004ZM10.047 10.047C10.047 10.2892 9.95081 10.5215 9.77952 10.6928C9.60824 10.8641 9.37592 10.9603 9.13368 10.9603C8.89144 10.9603 8.65912 10.8641 8.48783 10.6928C8.31655 10.5215 8.22032 10.2892 8.22032 10.047C8.22032 9.80473 8.31655 9.57241 8.48783 9.40112C8.65912 9.22983 8.89144 9.1336 9.13368 9.1336C9.37592 9.1336 9.60824 9.22983 9.77952 9.40112C9.95081 9.57241 10.047 9.80473 10.047 10.047ZM10.047 13.7004C10.047 13.9427 9.95081 14.175 9.77952 14.3463C9.60824 14.5176 9.37592 14.6138 9.13368 14.6138C8.89144 14.6138 8.65912 14.5176 8.48783 14.3463C8.31655 14.175 8.22032 13.9427 8.22032 13.7004C8.22032 13.4582 8.31655 13.2259 8.48783 13.0546C8.65912 12.8833 8.89144 12.7871 9.13368 12.7871C9.37592 12.7871 9.60824 12.8833 9.77952 13.0546C9.95081 13.2259 10.047 13.4582 10.047 13.7004ZM14.6139 10.047C14.6139 10.2892 14.5176 10.5215 14.3463 10.6928C14.1751 10.8641 13.9427 10.9603 13.7005 10.9603C13.4583 10.9603 13.2259 10.8641 13.0546 10.6928C12.8834 10.5215 12.7871 10.2892 12.7871 10.047C12.7871 9.80473 12.8834 9.57241 13.0546 9.40112C13.2259 9.22983 13.4583 9.1336 13.7005 9.1336C13.9427 9.1336 14.1751 9.22983 14.3463 9.40112C14.5176 9.57241 14.6139 9.80473 14.6139 10.047ZM14.6139 13.7004C14.6139 13.9427 14.5176 14.175 14.3463 14.3463C14.1751 14.5176 13.9427 14.6138 13.7005 14.6138C13.4583 14.6138 13.2259 14.5176 13.0546 14.3463C12.8834 14.175 12.7871 13.9427 12.7871 13.7004C12.7871 13.4582 12.8834 13.2259 13.0546 13.0546C13.2259 12.8833 13.4583 12.7871 13.7005 12.7871C13.9427 12.7871 14.1751 12.8833 14.3463 13.0546C14.5176 13.2259 14.6139 13.4582 14.6139 13.7004Z" fill="var(--fill-0, #453F2F)"/>
</g>
</svg>
