<svg preserveAspectRatio="none" width="100%" height="100%" overflow="visible" style="display: block;" viewBox="0 0 40.9575 40.9575" fill="none" xmlns="http://www.w3.org/2000/svg">
<g id="Group">
<path id="Vector" d="M34.8031 16.3803V18.4228H36.8591V30.7181H34.8031V32.7606H38.9016V18.4228H40.9575V12.2819H38.9016V16.3803H34.8031ZM36.8591 2.04251H38.9016V8.19688H36.8591V2.04251Z" fill="var(--fill-0, black)"/>
<path id="Vector_2" d="M2.04251 10.2394V12.2819H6.14095V10.2394H12.2819V12.2819H6.14095V14.3378H8.19688V18.4228H6.14095V20.4788H8.19688V32.7606H6.14095V34.8166H10.2394V36.8591H14.3378V24.5772H18.4228V22.5213H14.3378V18.4228H18.4228V16.3803H14.3378V14.3378H26.6197V16.3803H22.5213V18.4228H26.6197V22.5213H22.5213V24.5772H26.6197V34.8166H24.5772V36.8591H22.5213V38.9016H26.6197V36.8591H30.7181V34.8166H34.8031V32.7606H32.7606V20.4788H34.8031V18.4228H32.7606V14.3378H34.8031V12.2819H28.6622V10.2394H34.8031V12.2819H38.9016V10.2394H36.8591V8.19689H34.8031V4.09845H30.7181V6.14095H26.6197V8.19689H24.5772V4.09845H22.5213V8.19689H18.4228V4.09845H16.3803V10.2394H14.3378V6.14095H10.2394V4.09845H6.14095V8.19689H4.09845V10.2394H2.04251ZM18.4228 10.2394H22.5213V12.2819H18.4228V10.2394ZM28.6622 9.77516e-06H36.8591V2.04251H28.6622V9.77516e-06Z" fill="var(--fill-0, black)"/>
<path id="Vector_3" d="M24.5772 2.04251H28.6622V4.09845H24.5772V2.04251ZM18.4228 2.04251H22.5213V4.09845H18.4228V2.04251ZM18.4228 38.9016H22.5213V40.9575H18.4228V38.9016ZM18.4228 24.5772H22.5213V26.6197H18.4228V24.5772ZM18.4228 18.4228H22.5213V20.4788H18.4228V18.4228ZM14.3378 36.8591H18.4228V38.9016H14.3378V36.8591ZM12.2819 2.04251H16.3803V4.09845H12.2819V2.04251ZM4.09845 9.77516e-06H12.2819V2.04251H4.09845V9.77516e-06ZM4.09845 30.7181V18.4228H6.14095V16.3803H2.04251V12.2819H9.77516e-06V18.4228H2.04251V32.7606H6.14095V30.7181H4.09845ZM2.04251 2.04251H4.09845V8.19688H2.04251V2.04251Z" fill="var(--fill-0, black)"/>
</g>
</svg>
