<svg preserveAspectRatio="none" width="100%" height="100%" overflow="visible" style="display: block;" viewBox="0 0 13.4163 16.7786" fill="none" xmlns="http://www.w3.org/2000/svg">
<g id="Group 6">
<path id="Vector" d="M10.0622 6.71626C10.0622 4.86316 8.56131 3.36222 6.70821 3.36222C4.8551 3.36222 3.35417 4.86316 3.35417 6.71626C3.35417 8.56937 4.8551 10.0703 6.70821 10.0703C8.56131 10.0703 10.0622 8.56937 10.0622 6.71626ZM5.03119 6.71626C5.03119 5.7939 5.78585 5.03924 6.70821 5.03924C7.63057 5.03924 8.38523 5.7939 8.38523 6.71626C8.38523 7.63863 7.63057 8.39328 6.70821 8.39328C5.78585 8.39328 5.03119 7.63863 5.03119 6.71626Z" fill="var(--fill-0, black)"/>
<path id="Vector_2" d="M6.22182 16.6193C6.36437 16.7199 6.54046 16.7786 6.70816 16.7786C6.87586 16.7786 7.05195 16.7283 7.19449 16.6193C7.44605 16.4348 13.4414 12.1165 13.4162 6.70808C13.4162 3.01025 10.406 0 6.70816 0C3.01033 0 7.89369e-05 3.01025 7.89369e-05 6.70808C-0.0250764 12.1081 5.97027 16.4348 6.22182 16.6193ZM6.70816 1.6854C9.48363 1.6854 11.7392 3.941 11.7392 6.71646C11.756 10.4394 8.05816 13.7851 6.70816 14.8836C5.35816 13.7851 1.66033 10.4478 1.6771 6.71646C1.6771 3.941 3.93269 1.6854 6.70816 1.6854Z" fill="var(--fill-0, black)"/>
</g>
</svg>
