<svg preserveAspectRatio="none" width="100%" height="100%" overflow="visible" style="display: block;" viewBox="0 0 35.6364 42.3182" fill="none" xmlns="http://www.w3.org/2000/svg">
<path id="Vector" d="M24.5 42.3182H11.1364V40.0909H6.68182V37.8636H4.45455V35.6364H2.22727V31.1818H0V17.8182H2.22727V13.3636H4.45455V11.1364H6.68182V8.90909H11.1364V6.68182H8.90909V4.45455H6.68182V2.22727H8.90909V0H26.7273V2.22727H28.9545V4.45455H26.7273V6.68182H24.5V8.90909H28.9545V11.1364H31.1818V13.3636H33.4091V17.8182H35.6364V31.1818H33.4091V35.6364H31.1818V37.8636H28.9545V40.0909H24.5M20.0455 8.90909V6.68182H22.2727V4.45455H13.3636V6.68182H15.5909V8.90909M22.2727 35.6364V33.4091H26.7273V28.9545H28.9545V20.0455H26.7273V15.5909H22.2727V13.3636H13.3636V15.5909H8.90909V20.0455H6.68182V28.9545H8.90909V33.4091H13.3636V35.6364H22.2727Z" fill="var(--fill-0, black)"/>
</svg>
