<svg preserveAspectRatio="none" width="100%" height="100%" overflow="visible" style="display: block;" viewBox="0 0 22 20" fill="none" xmlns="http://www.w3.org/2000/svg">
<g id="Group">
<path id="Vector" d="M1 16.75V6.625C1 6.02826 1.23413 5.45597 1.65087 5.03401C2.06762 4.61205 2.63285 4.375 3.22222 4.375H4.25556C4.62132 4.37506 4.98144 4.2837 5.30396 4.10904C5.62649 3.93438 5.90145 3.68181 6.10444 3.37375L7.00667 2.00125C7.20966 1.69319 7.48462 1.44062 7.80715 1.26596C8.12968 1.0913 8.48979 0.999945 8.85556 1H13.1444C13.5102 0.999945 13.8703 1.0913 14.1929 1.26596C14.5154 1.44062 14.7903 1.69319 14.9933 2.00125L15.8956 3.37375C16.0986 3.68181 16.3735 3.93438 16.696 4.10904C17.0186 4.2837 17.3787 4.37506 17.7444 4.375H18.7778C19.3671 4.375 19.9324 4.61205 20.3491 5.03401C20.7659 5.45597 21 6.02826 21 6.625V16.75C21 17.3467 20.7659 17.919 20.3491 18.341C19.9324 18.7629 19.3671 19 18.7778 19H3.22222C2.63285 19 2.06762 18.7629 1.65087 18.341C1.23413 17.919 1 17.3467 1 16.75Z" stroke="var(--stroke-0, #453F2F)" stroke-width="2" stroke-linecap="round" stroke-linejoin="round"/>
<path id="Vector_2" d="M11.0001 14.5C12.841 14.5 14.3334 12.989 14.3334 11.125C14.3334 9.26104 12.841 7.75 11.0001 7.75C9.15913 7.75 7.66675 9.26104 7.66675 11.125C7.66675 12.989 9.15913 14.5 11.0001 14.5Z" stroke="var(--stroke-0, #453F2F)" stroke-width="2" stroke-linecap="round" stroke-linejoin="round"/>
</g>
</svg>
