<svg preserveAspectRatio="none" width="100%" height="100%" overflow="visible" style="display: block;" viewBox="0 0 22 19" fill="none" xmlns="http://www.w3.org/2000/svg">
<g id="Group">
<path id="Vector" fill-rule="evenodd" clip-rule="evenodd" d="M1.2892 1.39175C-1.3113e-07 2.78231 0 5.02194 0 9.5C0 13.9781 -1.3113e-07 16.2177 1.2892 17.6082C2.5784 18.9988 4.6519 19 8.8 19H13.2C17.3481 19 19.4227 19 20.7108 17.6082C21.9989 16.2165 22 13.9781 22 9.5C22 5.02194 22 2.78231 20.7108 1.39175C19.4216 0.00118741 17.3481 0 13.2 0H8.8C4.6519 0 2.5773 -1.41561e-07 1.2892 1.39175ZM18.2336 4.18C18.3736 4.36144 18.4411 4.59545 18.4213 4.8306C18.4015 5.06575 18.296 5.28279 18.128 5.434L15.7124 7.60713C14.7367 8.48588 13.9469 9.196 13.2484 9.6805C12.5224 10.1852 11.8151 10.5034 11 10.5034C10.1849 10.5034 9.4776 10.184 8.7505 9.6805C8.0531 9.196 7.2633 8.48469 6.2876 7.60831L3.872 5.43519C3.70381 5.28401 3.59814 5.06691 3.57824 4.83162C3.55833 4.59634 3.62582 4.36216 3.76585 4.18059C3.90588 3.99903 4.107 3.88495 4.32494 3.86346C4.54289 3.84197 4.75981 3.91483 4.928 4.066L7.304 6.20231C8.3303 7.125 9.042 7.76388 9.6448 8.18188C10.2267 8.58563 10.6216 8.72219 11.0011 8.72219C11.3806 8.72219 11.7755 8.58681 12.3574 8.18188C12.9591 7.76388 13.6719 7.125 14.6982 6.20231L17.0731 4.06481C17.2413 3.91384 17.4582 3.84117 17.676 3.86277C17.8938 3.88437 18.0937 3.99848 18.2336 4.18Z" fill="var(--fill-0, #453F2F)"/>
</g>
</svg>
